<svg width="137" height="129" viewBox="0 0 137 129" fill="none" xmlns="http://www.w3.org/2000/svg">
<path d="M134.5 64.5C134.5 98.6021 105.095 126.5 68.5 126.5C31.9054 126.5 2.5 98.6021 2.5 64.5C2.5 30.3979 31.9054 2.5 68.5 2.5C105.095 2.5 134.5 30.3979 134.5 64.5Z" fill="#025E73" stroke="#F2F2F2" stroke-width="5"/>
<path d="M88.3916 52.7088C88.3916 63.0614 79.8362 71.5152 69.2061 71.5152C58.576 71.5152 50.0205 63.0614 50.0205 52.7088C50.0205 42.3562 58.576 33.9023 69.2061 33.9023C79.8362 33.9023 88.3916 42.3562 88.3916 52.7088Z" fill="#F2F2F2" stroke="#F2F2F2" stroke-width="4"/>
<path d="M67.0348 86.2339C40.2941 86.5844 28.9385 108.318 25.2754 111.824C32.1132 117.666 51.2102 128.93 72.8957 127.247C94.5813 125.565 107.817 116.264 111.725 111.824C105.742 103.177 88.4273 85.9534 67.0348 86.2339Z" fill="#F2F2F2" stroke="#F2F2F2"/>
</svg>
