<svg width="56" height="53" viewBox="0 0 56 53" fill="none" xmlns="http://www.w3.org/2000/svg">
<path d="M42.023 35.4932C42.8478 36.9375 44.7628 45.1111 45.3202 45.5218C45.8775 45.9325 48.118 47.0233 48.5082 47.6353C48.8983 48.2473 49.2907 49.2047 48.9005 49.4767C48.5104 49.7487 41.9672 49.5474 40.8481 49.4767C39.7289 49.406 34.8734 45.4538 34.3071 44.4284C33.7409 43.4029 26.7585 35.4252 27.3738 33.377C27.9891 31.3288 38.6678 29.6261 42.023 35.4932Z" fill="#025E73"/>
<path opacity="0.1" d="M42.023 35.4932C42.8478 36.9375 44.7628 45.1111 45.3202 45.5218C45.8775 45.9325 48.118 47.0233 48.5082 47.6353C48.8983 48.2473 49.2907 49.2047 48.9005 49.4767C48.5104 49.7487 41.9672 49.5474 40.8481 49.4767C39.7289 49.406 34.8734 45.4538 34.3071 44.4284C33.7409 43.4029 26.7585 35.4252 27.3738 33.377C27.9891 31.3288 38.6678 29.6261 42.023 35.4932Z" fill="black"/>
<path opacity="0.1" d="M43.9556 41.5395C42.375 42.4697 40.7431 43.4435 40.7431 43.4435L37.3232 47.2733C35.9143 46.1526 34.5878 44.9341 34.3069 44.4281C33.7407 43.4027 26.756 35.4222 27.3736 33.3741C27.9911 31.3259 38.6676 29.6232 42.0205 35.4902C42.4753 36.2845 43.2534 39.0942 43.9556 41.5395Z" fill="black"/>
<path d="M47.5093 48.3832C47.3576 48.2279 47.1896 48.098 47.0099 47.9969C46.8217 47.8979 46.628 47.8152 46.4302 47.7494C46.4272 47.7481 46.424 47.7477 46.4208 47.7483C46.4176 47.7488 46.4146 47.7503 46.412 47.7526C46.4094 47.7548 46.4073 47.7578 46.4058 47.7613C46.4043 47.7648 46.4036 47.7686 46.4036 47.7725C46.4036 47.7764 46.4043 47.7803 46.4058 47.7838C46.4073 47.7872 46.4094 47.7902 46.412 47.7925C46.4146 47.7947 46.4176 47.7962 46.4208 47.7968C46.424 47.7973 46.4272 47.7969 46.4302 47.7956C46.7876 47.9657 47.1091 48.2316 47.371 48.5736C47.6363 48.8699 47.8619 49.2149 48.0398 49.5963C48.0577 49.6371 48.1067 49.5963 48.1 49.5691C48.013 49.1064 47.8057 48.6905 47.5093 48.3832V48.3832Z" fill="#263238"/>
<path d="M48.4857 47.9676C48.3334 47.8142 48.1656 47.6853 47.9863 47.5841C47.7981 47.485 47.6045 47.4023 47.4067 47.3366C47.4041 47.335 47.4012 47.3341 47.3983 47.334C47.3953 47.3339 47.3924 47.3346 47.3897 47.336C47.387 47.3375 47.3846 47.3396 47.3827 47.3423C47.3808 47.345 47.3793 47.3481 47.3785 47.3516C47.3777 47.355 47.3775 47.3586 47.3779 47.3621C47.3784 47.3657 47.3794 47.3691 47.3811 47.372C47.3827 47.375 47.3848 47.3775 47.3873 47.3794C47.3898 47.3812 47.3926 47.3824 47.3956 47.3828C47.7523 47.5516 48.0731 47.8166 48.3341 48.158C48.5998 48.4549 48.8255 48.8009 49.0029 49.1834C49.0208 49.2242 49.0698 49.1834 49.0631 49.1535C48.9796 48.693 48.7773 48.2773 48.4857 47.9676V47.9676Z" fill="#263238"/>
<path d="M31.1835 39.9788C30.0376 38.5644 28.7312 37.3567 27.5519 35.994C26.8563 35.2464 26.2399 34.3957 25.7171 33.4617C25.7015 33.4318 25.6636 33.4617 25.6792 33.4889C26.0985 34.3164 26.5656 35.1063 27.077 35.8526C27.6106 36.6046 28.1801 37.3176 28.7825 37.9878C29.9485 39.3151 31.2036 40.5446 32.2425 42.0297C32.8379 42.8391 33.3431 43.7409 33.7451 44.7116C33.7451 44.7415 33.7964 44.7116 33.7874 44.6899C33.2412 42.8729 32.2938 41.347 31.1835 39.9788Z" fill="#263238"/>
<path d="M36.6901 46.71C35.8964 46.2068 35.3346 45.3908 34.755 44.583C34.4741 44.1886 34.2021 43.7806 33.9101 43.3998C33.5378 42.9183 33.1543 42.4587 32.8154 41.9419C32.7976 41.9147 32.7619 41.9419 32.7798 41.9718C33.404 42.9238 33.8788 44.0036 34.5521 44.9121C35.1337 45.7157 35.8581 46.3465 36.67 46.7563C36.6748 46.7575 36.6797 46.7568 36.6841 46.7543C36.6885 46.7518 36.6921 46.7476 36.6944 46.7424C36.6966 46.7371 36.6974 46.7312 36.6967 46.7253C36.6959 46.7195 36.6936 46.7141 36.6901 46.71V46.71Z" fill="#263238"/>
<path d="M23.9202 22.4321C24.9257 25.405 21.245 33.6167 19.9497 35.0502C18.6545 36.4836 14.5837 40.0278 14.3028 40.7132C14.0219 41.3986 14.4321 45.7887 14.7687 46.2647C15.1053 46.7407 16.4251 47.1025 16.7885 47.5214C17.1028 47.8858 17.6379 48.7209 17.2188 49.2295C16.7996 49.7382 11.4536 49.5015 10.9498 49.2295C10.4459 48.9575 7.42516 40.0985 7.42516 38.461C7.42516 36.8236 6.21684 22.2906 10.446 20.0385C14.6751 17.7863 22.4667 18.1345 23.9202 22.4321Z" fill="#025E73"/>
<path opacity="0.1" d="M23.9202 22.4321C24.9257 25.405 21.245 33.6167 19.9497 35.0502C18.6545 36.4836 14.5837 40.0278 14.3028 40.7132C14.0219 41.3986 14.4321 45.7887 14.7687 46.2647C15.1053 46.7407 16.4251 47.1025 16.7885 47.5214C17.1028 47.8858 17.6379 48.7209 17.2188 49.2295C16.7996 49.7382 11.4536 49.5015 10.9498 49.2295C10.4459 48.9575 7.42516 40.0985 7.42516 38.461C7.42516 36.8236 6.21684 22.2906 10.446 20.0385C14.6751 17.7863 22.4667 18.1345 23.9202 22.4321Z" fill="black"/>
<path d="M22.4199 30.0565C22.1519 30.7399 21.8542 31.4055 21.5282 32.0503C21.3699 32.3631 21.2072 32.6677 21.0377 32.9723C20.8683 33.277 20.6587 33.5762 20.4603 33.8754C20.0398 34.466 19.5869 35.0213 19.1049 35.5373C18.8574 35.8256 18.6033 36.1058 18.3625 36.3995C18.1217 36.6933 17.852 37.0551 17.5733 37.3434C17.551 37.3651 17.5844 37.4005 17.6045 37.3787C17.8988 37.0741 18.2354 36.8157 18.5475 36.541C18.8596 36.2663 19.1249 36.0133 19.4103 35.744C19.9333 35.2805 20.4099 34.7437 20.8304 34.1447C21.6151 32.9397 22.0053 31.4818 22.4489 30.0647C22.4645 30.0511 22.4311 30.0347 22.4199 30.0565Z" fill="#263238"/>
<path d="M26.346 21.8555C24.665 24.4177 23.4813 27.4233 22.6586 30.535C22.5449 30.9702 22.4357 31.4081 22.3287 31.8488C22.2217 32.2894 22.1503 32.7899 22.0188 33.2441C22.0188 33.2768 22.0522 33.2904 22.0612 33.2577C22.1726 32.8524 22.3331 32.4717 22.4691 32.08C22.6051 31.6883 22.721 31.3293 22.8459 30.9539C23.1 30.2014 23.3527 29.447 23.6039 28.6908C24.1033 27.184 24.6249 25.6825 25.2313 24.2328C25.5783 23.4258 25.9631 22.6438 26.3839 21.8908C26.3995 21.8636 26.3616 21.8283 26.346 21.8555Z" fill="#263238"/>
<path d="M15.8056 48.3832C15.654 48.2279 15.486 48.098 15.3062 47.9969C15.1181 47.8979 14.9244 47.8152 14.7266 47.7494C14.7236 47.7481 14.7204 47.7477 14.7172 47.7483C14.714 47.7488 14.711 47.7503 14.7084 47.7526C14.7058 47.7548 14.7037 47.7578 14.7022 47.7613C14.7007 47.7648 14.7 47.7686 14.7 47.7725C14.7 47.7764 14.7007 47.7803 14.7022 47.7838C14.7037 47.7872 14.7058 47.7902 14.7084 47.7925C14.711 47.7947 14.714 47.7962 14.7172 47.7968C14.7204 47.7973 14.7236 47.7969 14.7266 47.7956C15.084 47.9657 15.4055 48.2316 15.6674 48.5736C15.9319 48.8707 16.1575 49.2157 16.3362 49.5963C16.3518 49.6371 16.4031 49.5963 16.3942 49.5691C16.3092 49.1061 16.1025 48.6896 15.8056 48.3832V48.3832Z" fill="#263238"/>
<path d="M16.7842 47.967C16.6319 47.8135 16.4641 47.6846 16.2848 47.5835C16.0967 47.4844 15.903 47.4017 15.7052 47.3359C15.6785 47.3359 15.6695 47.3713 15.6941 47.3822C16.0515 47.551 16.373 47.816 16.6349 48.1574C16.9 48.4548 17.1257 48.8008 17.3037 49.1828C17.3215 49.2236 17.3706 49.1828 17.3639 49.1529C17.2798 48.692 17.0766 48.2763 16.7842 47.967V47.967Z" fill="#263238"/>
<path opacity="0.1" d="M19.9497 35.0496C18.6634 36.4912 14.5814 40.0271 14.3028 40.7153C14.0241 41.4035 14.4321 45.7881 14.7687 46.2641C15.1053 46.7401 16.4273 47.1019 16.7885 47.5235C17.0293 47.7955 17.3993 48.3558 17.3704 48.8318C16.2222 48.6196 15.0674 48.3068 14.6706 47.8635C12.7935 45.7663 10.6577 43.71 10.31 43.71C10.087 43.71 9.41821 43.7454 8.8096 43.7835C8.06945 41.5095 7.42516 39.2139 7.42516 38.4631C7.42516 36.8311 6.21684 22.2928 10.4459 20.0406C14.6751 17.7884 22.4667 18.1366 23.9202 22.4315C24.9279 25.4044 21.2361 33.6134 19.9497 35.0496Z" fill="black"/>
<path d="M46.9607 18.5393C46.9607 18.5393 41.5701 1.49039 39.1736 0.0759874C36.777 -1.33841 33.7852 17.4269 35.2209 20.1904C36.6566 22.9539 42.5421 24.6077 42.9702 24.507C43.3982 24.4064 47.1324 20.8595 46.9607 18.5393Z" fill="#025E73"/>
<g opacity="0.1">
<path opacity="0.1" d="M46.9607 18.5393C46.9607 18.5393 41.5701 1.49039 39.1736 0.0759874C36.777 -1.33841 33.7852 17.4269 35.2209 20.1904C36.6566 22.9539 42.5421 24.6077 42.9702 24.507C43.3982 24.4064 47.1324 20.8595 46.9607 18.5393Z" fill="black"/>
</g>
<path opacity="0.1" d="M42.9703 24.5235C42.5445 24.6214 36.659 22.9704 35.221 20.2069C34.6169 19.0427 34.7974 15.0389 35.3882 10.9099C36.9688 10.7957 41.2782 10.4883 41.5591 10.6379C41.7664 10.7549 44.0471 13.192 45.8284 15.1205C46.5172 17.1496 46.9609 18.5477 46.9609 18.5477C47.1348 20.8597 43.3983 24.412 42.9703 24.5235Z" fill="black"/>
<path d="M10.7716 7.36767C11.2822 6.51087 10.1808 5.03119 8.86775 4.96591C7.55465 4.90063 4.90393 7.85727 5.20935 8.31423C5.51478 8.77119 9.76618 9.05951 10.7716 7.36767Z" fill="#025E73"/>
<path d="M42.8031 39.5322C41.6104 39.3146 36.8084 48.4592 34.3561 49.5663C31.9038 50.6733 17.7205 49.3541 15.5737 47.6188C13.4268 45.8834 8.71612 38.0444 7.45653 35.8112C6.19694 33.5781 1.30794 29.9632 0.469701 26.7591C-0.36854 23.5549 1.45954 14.5381 2.8685 12.0548C4.27746 9.57141 9.09066 5.55941 12.263 6.54133C15.4354 7.52325 25.6392 17.4213 27.8485 16.1429C29.9709 14.9135 36.3469 9.95494 40.4333 12.0221C44.5197 14.0893 49.0231 20.4079 49.1813 24.205C49.3396 28.0021 48.4345 30.733 48.6864 30.986C48.9896 31.2988 54.0815 33.608 54.8216 34.0378C55.4459 34.3968 53.6111 38.0416 51.1744 39.3037C49.1791 40.3428 44.299 39.8069 42.8031 39.5322Z" fill="#025E73"/>
<path d="M9.91324 6.5962C9.2144 6.72953 8.53061 6.96137 7.8756 7.28708C7.55951 7.4595 7.25139 7.65291 6.95264 7.86644C6.63161 8.09492 6.34402 8.37508 6.03414 8.61716C6.00962 8.6362 6.03414 8.68244 6.05643 8.6634C6.35977 8.45296 6.67319 8.26494 6.995 8.10036C7.32048 7.91903 7.64969 7.74495 7.98261 7.57812C8.62243 7.25988 9.26226 6.88724 9.92438 6.63972C9.94668 6.63156 9.93553 6.59076 9.91324 6.5962Z" fill="#263238"/>
<path d="M0.469765 26.7588C1.30801 29.9629 6.18809 33.5805 7.44768 35.8109C8.70728 38.0413 13.4157 45.8749 15.5626 47.6184C17.7095 49.3619 31.8815 50.6703 34.345 49.5659C36.8084 48.4616 41.6105 39.317 42.8032 39.5319C44.2991 39.8039 49.177 40.3479 51.1812 39.3034C53.6179 38.0386 55.4526 34.4074 54.8284 34.0375C54.086 33.6077 48.9942 31.2984 48.6932 30.9856C48.4413 30.7136 49.3464 27.9936 49.1881 24.2047C49.1458 23.1602 48.7021 21.9172 48.098 20.4892C47.311 20.0621 46.8339 21.5146 46.9588 22.8365C47.0836 24.1584 47.4893 25.241 47.5362 27.3436C47.583 29.4461 46.9654 32.3239 45.9489 33.0556C43.7864 34.6304 41.2672 31.1026 40.021 31.5351C38.7747 31.9676 37.2387 33.6567 37.2097 34.5869C37.1808 35.5172 37.7381 37.4048 37.698 37.5354C37.6578 37.666 35.6403 40.6199 34.7552 41.3923C33.8701 42.1648 32.2806 42.7714 32.2806 42.7714C33.0311 42.7473 33.7752 42.5972 34.4921 42.3253C34.3049 42.4423 31.2127 44.8984 29.9264 44.9555C28.5999 45.0154 20.2665 45.5757 17.6203 44.9746C14.974 44.3735 10.3682 33.1752 6.48906 31.7581C2.60996 30.341 2.28224 25.4858 2.33797 23.6416C2.39371 21.7975 6.08777 17.8372 5.89827 15.0029C5.76451 12.9874 4.15268 12.2829 2.77716 12.2666C1.37489 15.0029 -0.332807 23.6389 0.469765 26.7588Z" fill="white"/>
<path d="M0.469555 26.7593C0.750455 27.7738 1.3078 28.6306 1.88743 29.4167C2.48518 30.1941 3.11701 30.9314 3.78016 31.6253L5.76653 33.7061C6.09425 34.0597 6.41973 34.4161 6.72961 34.7941C7.04474 35.1644 7.3265 35.5747 7.57009 36.0181C8.57627 37.7589 9.61664 39.4671 10.6912 41.1426C11.759 42.835 12.8968 44.46 14.0999 46.0114C14.4053 46.3922 14.7174 46.7621 15.0496 47.0994C15.2146 47.2723 15.3872 47.434 15.5668 47.5836C15.7495 47.7251 15.9447 47.841 16.1487 47.929C16.9752 48.2678 17.8229 48.5244 18.6835 48.6961C20.4001 49.0714 22.1368 49.3189 23.8734 49.5121C25.6101 49.7052 27.3557 49.8385 29.0991 49.8956C29.9708 49.9228 30.8447 49.9309 31.7163 49.8956C32.1622 49.8793 32.5858 49.8521 33.0205 49.8031C33.4514 49.7667 33.8781 49.6755 34.2935 49.5311C34.6929 49.3334 35.0634 49.0578 35.3903 48.7151C35.7296 48.3791 36.0541 48.0213 36.3623 47.6434C36.9777 46.8927 37.5573 46.0957 38.128 45.2906C38.6987 44.4855 39.2538 43.6586 39.8179 42.8426C40.3819 42.0266 40.9459 41.2106 41.5657 40.4545C41.7196 40.2627 41.8819 40.0811 42.0517 39.9105C42.2202 39.724 42.4161 39.5782 42.6291 39.4807C42.6904 39.4581 42.7549 39.4507 42.8186 39.4589L42.9791 39.4861L43.3046 39.5378L43.9533 39.6221C44.8206 39.7255 45.69 39.7962 46.5617 39.8234C47.4318 39.8566 48.3027 39.8284 49.1701 39.7391C50.0328 39.6357 50.9023 39.4671 51.6513 38.9231C52.4065 38.4006 53.0846 37.7276 53.6578 36.9321C53.9405 36.5401 54.1955 36.1197 54.4202 35.6754C54.5348 35.4543 54.6361 35.2234 54.7234 34.9845C54.8156 34.7631 54.8623 34.5176 54.8594 34.2692C54.8438 34.1549 54.8126 34.1386 54.6944 34.0761L54.3935 33.9237L53.7871 33.6273L52.5676 33.0452L50.1331 31.8674C49.7274 31.6689 49.3216 31.4703 48.9204 31.2473L48.771 31.1602C48.7062 31.1261 48.6484 31.075 48.6016 31.0106C48.5679 30.9319 48.5525 30.8435 48.557 30.7549C48.557 30.6815 48.557 30.6135 48.5704 30.5455C48.5971 30.2735 48.6417 30.0015 48.6818 29.7485C48.8601 28.7098 48.9867 27.6589 49.0608 26.6015C49.0965 26.0738 49.1128 25.5452 49.1099 25.0157C49.1099 24.7437 49.1099 24.4717 49.092 24.2215C49.0797 23.9629 49.0484 23.7062 48.9984 23.4545C48.762 22.4382 48.4299 21.4588 48.0086 20.5359L48.0576 20.593C47.9962 20.5566 47.9295 20.5355 47.8614 20.5308C47.7933 20.5261 47.7251 20.538 47.6608 20.5658C47.5312 20.6398 47.4226 20.7591 47.3487 20.9085C47.1887 21.2341 47.0912 21.5995 47.0633 21.9775C47.0296 22.3611 47.0416 22.7486 47.099 23.1281C47.1502 23.5143 47.2216 23.9005 47.2952 24.2868C47.6345 25.8433 47.723 27.4654 47.556 29.0631C47.4649 29.8625 47.2966 30.6458 47.0544 31.3969C46.9316 31.7799 46.7738 32.1449 46.584 32.4849C46.4859 32.6551 46.373 32.812 46.2474 32.9527C46.1183 33.0933 45.9734 33.2105 45.8171 33.3009C45.5089 33.4815 45.1734 33.5825 44.8317 33.5973C44.4952 33.6071 44.1593 33.5558 43.8352 33.445C43.2054 33.2058 42.5985 32.8848 42.0249 32.4876C41.7373 32.3026 41.4498 32.1149 41.1599 31.9436C40.8822 31.7682 40.5795 31.6592 40.2682 31.6226C40.193 31.6172 40.1177 31.6273 40.0453 31.6525C39.9695 31.677 39.8937 31.7069 39.8223 31.7396C39.6737 31.8078 39.5285 31.8868 39.3876 31.9762C38.8178 32.3353 38.3022 32.8099 37.8627 33.3797C37.6417 33.6515 37.4647 33.9717 37.341 34.3236C37.3173 34.406 37.3031 34.4921 37.2987 34.5793C37.2932 34.6743 37.2932 34.7698 37.2987 34.8649C37.3131 35.0585 37.3362 35.251 37.3678 35.4415C37.428 35.825 37.5105 36.2085 37.5907 36.5921L37.72 37.1687C37.7444 37.2711 37.7622 37.3757 37.7735 37.4815V37.5141C37.7745 37.5304 37.7745 37.5468 37.7735 37.5631L37.7512 37.6093C37.7383 37.6348 37.7241 37.6593 37.7089 37.6828L37.6331 37.8025C37.428 38.1153 37.2162 38.4199 37.0044 38.7218C36.5764 39.3229 36.1394 39.9159 35.6824 40.4871C35.453 40.7737 35.2119 41.046 34.9601 41.3031C34.7041 41.5567 34.4269 41.7764 34.133 41.9586C33.5456 42.3158 32.9367 42.6177 32.3116 42.8617L32.2848 42.6631C32.6583 42.6508 33.0307 42.6081 33.3995 42.5353C33.7662 42.4677 34.1278 42.364 34.4808 42.2252L35.1496 41.9532L34.5476 42.402C33.5969 43.1348 32.6129 43.8014 31.6004 44.3985C31.344 44.5426 31.0832 44.6705 30.8157 44.7929C30.5463 44.9182 30.2644 44.9987 29.9774 45.0322L28.2943 45.122C26.0493 45.2362 23.8021 45.3287 21.5549 45.3178C20.4402 45.3178 19.3055 45.2825 18.1841 45.1356C18.0436 45.1111 17.9032 45.0921 17.7627 45.0621C17.6197 45.0379 17.4792 44.995 17.3436 44.9343C17.0782 44.8019 16.8291 44.6252 16.6035 44.4093C16.1586 43.9839 15.7453 43.5115 15.3684 42.9977C14.606 41.9858 13.9126 40.9033 13.2193 39.8261C12.526 38.749 11.8393 37.6665 11.1215 36.6111C10.4156 35.5515 9.65143 34.5518 8.83414 33.6191C8.42097 33.1548 7.97315 32.7387 7.49652 32.3761C7.25851 32.1984 7.00869 32.0456 6.74968 31.9191C6.4933 31.7994 6.21463 31.7151 5.95602 31.5764C4.89529 31.0669 3.99662 30.1554 3.39225 28.9761C2.8045 27.788 2.44972 26.4503 2.3556 25.0674C2.32662 24.7274 2.31324 24.382 2.31101 24.0393C2.3073 23.8668 2.31252 23.6941 2.32662 23.5225C2.34589 23.349 2.38258 23.1791 2.43586 23.0165C2.66554 22.3885 2.94954 21.7921 3.28302 21.2377C3.92284 20.1089 4.62063 19.0236 5.1646 17.8322C5.45434 17.2473 5.67499 16.6155 5.82003 15.9554C5.97479 15.2917 5.91549 14.581 5.65432 13.969C5.39315 13.357 4.9499 12.8901 4.41553 12.6642C3.88995 12.4127 3.33038 12.2835 2.7658 12.2834H2.77918C2.28067 13.3708 1.88002 14.5208 1.58424 15.7133C1.27436 16.9047 1.01575 18.1151 0.799502 19.3364C0.583409 20.5574 0.424863 21.7924 0.324646 23.0356C0.277165 23.6576 0.256329 24.2822 0.262224 24.9069C0.264159 25.5328 0.333873 26.1557 0.469555 26.7593V26.7593ZM0.469555 26.7593C0.332807 26.1559 0.263073 25.5329 0.262224 24.9069C0.253662 24.2823 0.273012 23.6576 0.320188 23.0356C0.417063 21.7906 0.573384 20.5537 0.788355 19.3309C1.01129 18.1097 1.25652 16.8829 1.56417 15.7052C1.85426 14.5036 2.25122 13.3443 2.74797 12.248C3.31338 12.252 3.87336 12.383 4.39993 12.6343C4.93485 12.879 5.38121 13.3475 5.65952 13.9562C5.91332 14.582 5.97425 15.2984 5.83118 15.9745C5.6935 16.6436 5.47724 17.2849 5.18912 17.8785C4.63401 19.0753 3.94737 20.166 3.312 21.2948C2.98042 21.8449 2.69933 22.4378 2.47375 23.0628C2.42179 23.2191 2.38585 23.3826 2.36675 23.5497C2.35439 23.7188 2.34992 23.8886 2.35337 24.0583C2.35337 24.3983 2.37121 24.741 2.40019 25.0783C2.49333 26.4442 2.84433 27.7652 3.42569 28.938C4.02344 30.0994 4.91127 30.9957 5.95825 31.4948C6.21686 31.6308 6.48661 31.7097 6.75191 31.8375C7.01609 31.9626 7.27052 32.1165 7.51212 32.2972C7.9896 32.6614 8.43751 33.0803 8.84974 33.5484C9.67981 34.4782 10.4553 35.478 11.1705 36.5404C11.8906 37.593 12.5817 38.6756 13.275 39.7527C13.9684 40.8298 14.6662 41.9042 15.4264 42.9079C15.7994 43.414 16.2082 43.8791 16.6481 44.2978C16.8659 44.5046 17.1059 44.6739 17.3615 44.801C17.6256 44.8999 17.8976 44.9637 18.1729 44.9914C19.2876 45.1356 20.4023 45.1546 21.5304 45.1628C23.7753 45.1628 26.0203 45.0703 28.2631 44.9479L29.944 44.8554C30.2167 44.8211 30.4843 44.7425 30.7399 44.6215C31.0024 44.5083 31.2598 44.3784 31.5112 44.2325C32.5202 43.6318 33.5011 42.9635 34.4496 42.2306L34.512 42.4101C34.1483 42.555 33.7755 42.6633 33.3973 42.7338C33.0233 42.8083 32.6457 42.8528 32.267 42.8671L31.7208 42.8834L32.2402 42.6685C33.4619 42.1599 34.6926 41.5805 35.5486 40.3429C35.9945 39.7772 36.4404 39.1869 36.8595 38.5858C37.0713 38.2839 37.2808 37.982 37.4815 37.6719L37.5551 37.5577L37.584 37.5087V37.4924C37.584 37.4924 37.584 37.4924 37.584 37.506C37.584 37.5196 37.584 37.506 37.584 37.506C37.5732 37.4142 37.5575 37.3234 37.5372 37.234L37.4079 36.6628C37.321 36.2765 37.2385 35.8903 37.185 35.4959C37.1538 35.2973 37.127 35.0988 37.1114 34.8948C37.1058 34.7906 37.1058 34.6861 37.1114 34.582C37.1152 34.4713 37.1333 34.3621 37.1649 34.2583C37.2946 33.8749 37.4838 33.5257 37.7223 33.2301C38.1766 32.6393 38.7095 32.1464 39.2984 31.7722C39.4468 31.6792 39.5994 31.5965 39.7554 31.5247C39.8357 31.4893 39.9137 31.4567 39.9962 31.4295C40.0838 31.3985 40.1748 31.3848 40.266 31.3887C40.6052 31.4227 40.9355 31.5383 41.238 31.7287C41.5389 31.8973 41.8265 32.085 42.1163 32.2727C42.677 32.6601 43.2705 32.972 43.8865 33.2029C44.4889 33.4382 45.1416 33.3907 45.7168 33.0697C45.9967 32.9066 46.2343 32.6525 46.4034 32.3353C46.583 32.0158 46.7325 31.6727 46.8493 31.3125C47.0827 30.5811 47.2451 29.8189 47.3331 29.0413C47.5005 27.4762 47.4165 25.8862 47.0856 24.3602C47.0143 23.974 46.9407 23.5823 46.8894 23.1852C46.8292 22.7823 46.8179 22.3708 46.856 21.9639C46.8879 21.5469 46.9969 21.1443 47.1748 20.7861C47.2718 20.5933 47.415 20.4414 47.585 20.3509C47.6742 20.3109 47.7692 20.2931 47.8641 20.2987C47.9591 20.3043 48.0522 20.3332 48.1379 20.3836L48.1713 20.3999L48.1869 20.438C48.6138 21.385 48.9496 22.389 49.1879 23.43C49.2414 23.6975 49.2735 23.9708 49.2837 24.246C49.2837 24.518 49.2994 24.79 49.3016 25.062C49.3016 25.606 49.2837 26.1409 49.2481 26.6668C49.1705 27.7324 49.041 28.7915 48.8602 29.8383C48.8178 30.1103 48.7755 30.3605 48.7487 30.6162C48.7418 30.6784 48.7381 30.7411 48.7376 30.8039C48.7349 30.849 48.7394 30.8942 48.7509 30.9372C48.7823 30.9656 48.8159 30.9902 48.8513 31.0106L48.9939 31.0949C49.3885 31.3153 49.7943 31.5138 50.1978 31.7124L52.6367 32.8521L53.8562 33.4369L54.4648 33.7361L54.768 33.8911C54.8273 33.9195 54.8835 33.957 54.9352 34.0026C54.9872 34.0665 55.0202 34.1498 55.0288 34.2393C55.0373 34.5224 54.9859 34.8034 54.8795 35.0553C54.7889 35.3026 54.6839 35.5417 54.5651 35.7706C53.847 37.1352 52.8716 38.2703 51.7205 39.0809C51.3332 39.3461 50.9164 39.5412 50.4831 39.6602C50.0537 39.7786 49.6179 39.8595 49.179 39.9023C48.3056 39.9916 47.4286 40.017 46.5528 39.9785C45.6789 39.9476 44.8064 39.8787 43.9355 39.7717L43.2823 39.682L42.9568 39.6303L42.7941 39.6031C42.749 39.5981 42.7036 39.6036 42.6603 39.6194C42.4644 39.7124 42.2838 39.8478 42.1275 40.0193C41.9625 40.1852 41.8042 40.3674 41.6504 40.5633C41.0351 41.314 40.4711 42.1273 39.9048 42.9378C39.3386 43.7484 38.7901 44.5698 38.2083 45.3722C37.6264 46.1746 37.0534 46.9743 36.4248 47.7277C36.1158 48.1109 35.7906 48.4741 35.4505 48.8157C35.1138 49.1685 34.732 49.4515 34.3202 49.6535C33.8967 49.7989 33.4618 49.89 33.0228 49.9255C32.5769 49.9745 32.1488 49.9989 31.7119 50.0153C30.838 50.0452 29.9641 50.0343 29.0902 50.0153C27.3446 49.9527 25.599 49.8113 23.8601 49.6154C22.1212 49.4196 20.3845 49.1612 18.6656 48.7804C17.8018 48.6047 16.9511 48.3437 16.1219 47.9997C15.9142 47.91 15.7153 47.7923 15.5289 47.6489C15.3483 47.4965 15.1742 47.3331 15.0073 47.1593C14.6751 46.8111 14.363 46.4385 14.0575 46.0577C12.8448 44.5181 11.7457 42.8589 10.6667 41.1834C9.58766 39.5079 8.55101 37.7916 7.54556 36.0453C7.30294 35.6034 7.02271 35.1941 6.70955 34.8241C6.39967 34.4487 6.07641 34.0897 5.74869 33.7361L3.76679 31.6471C3.10858 30.9464 2.48195 30.2028 1.88966 29.4194C1.31003 28.6333 0.754914 27.7874 0.469555 26.7593Z" fill="#DBDBDB"/>
<path d="M53.2788 36.3338C54.2017 36.4263 55.497 34.8677 55.2852 34.321C55.0734 33.7743 51.395 33.1677 51.1386 33.5594C50.8822 33.9511 52.2756 36.2359 53.2788 36.3338Z" fill="#263238"/>
<path d="M46.6597 30.0806C46.6597 30.0316 46.5661 30.105 46.5549 30.1567C46.2495 31.3862 45.7323 32.7326 44.7179 32.7652C44.6867 32.7652 44.6733 32.8305 44.7068 32.8387C45.8616 33.0998 46.5348 31.3046 46.6597 30.0806Z" fill="#263238"/>
<path d="M46.1203 28.4431C44.5598 27.6271 43.347 31.5112 44.7961 32.2511C46.2452 32.9909 47.4312 29.1204 46.1203 28.4431Z" fill="#263238"/>
<path d="M46.3009 22.7226C46.3009 22.7226 44.435 21.572 42.9836 24.5967Z" fill="#263238"/>
<path d="M40.3754 15.8035C40.3754 15.8035 31.1614 1.38746 28.5307 0.895142C25.9001 0.402822 27.5008 19.4047 29.534 21.5427C31.5671 23.6806 37.5909 23.1747 37.9766 22.9299C38.3622 22.6851 41.0977 17.9604 40.3754 15.8035Z" fill="#025E73"/>
<path d="M38.904 19.7196C39.6197 18.1392 30.2229 3.10307 28.3435 2.94259C26.4642 2.78211 28.4171 18.9906 29.3824 20.473C30.3477 21.9554 35.9368 23.0815 36.454 22.4015C38.0012 20.3615 38.904 19.7196 38.904 19.7196Z" fill="#F7A9A0"/>
<path d="M41.6171 16.0916C41.4343 15.6755 41.1562 15.3334 40.8168 15.1069C40.5359 14.8975 40.2394 14.7289 39.9451 14.5629C39.5661 14.0189 39.1827 13.4749 38.7925 12.9473C38.2954 12.2645 37.7915 11.5872 37.2743 10.9236C36.7571 10.2599 36.2221 9.62341 35.7138 8.94341C35.6937 8.91893 35.6647 8.957 35.6826 8.9842C36.1641 9.67509 36.61 10.4068 37.0759 11.1112C37.5419 11.8157 37.9833 12.4713 38.4492 13.1268C38.9151 13.7823 39.4078 14.4623 39.8916 15.126C40.3129 15.7026 40.7454 16.2493 41.0063 16.9674C41.0124 16.9823 41.0227 16.994 41.0353 17.0006C41.0479 17.0071 41.0619 17.008 41.075 17.0031C41.0881 16.9983 41.0993 16.9879 41.1067 16.9739C41.1141 16.9599 41.1172 16.9432 41.1155 16.9266C41.0085 16.1895 40.6228 15.5666 40.2416 15.0063C40.2104 14.9573 40.177 14.9111 40.1435 14.8621C40.3152 15.0036 40.4868 15.1341 40.6652 15.2647C41.0152 15.4636 41.321 15.7621 41.5569 16.1351C41.5617 16.1448 41.5694 16.1519 41.5784 16.1547C41.5874 16.1575 41.5969 16.1558 41.6049 16.1501C41.6129 16.1443 41.6186 16.1349 41.6209 16.1239C41.6232 16.1129 41.6219 16.1013 41.6171 16.0916V16.0916Z" fill="#263238"/>
<path d="M30.1001 22.4176C29.3266 21.8273 28.9409 20.655 28.6845 19.6432C28.5396 19.0611 28.4036 18.479 28.2721 17.8915C28.1405 17.304 27.9822 16.6811 27.8886 16.0664C27.8886 16.0365 27.8418 16.0446 27.8462 16.0664C27.9243 16.711 27.9644 17.3638 28.0536 18.0085C28.1385 18.6624 28.2539 19.3099 28.3991 19.9478C28.4415 20.1246 28.4905 20.3014 28.544 20.4728C28.5115 20.7999 28.5358 21.1317 28.6154 21.4465C28.7449 21.8802 28.9656 22.2648 29.2552 22.5618C29.2586 22.5643 29.2626 22.5654 29.2666 22.5648C29.2706 22.5642 29.2743 22.562 29.2771 22.5586C29.28 22.5551 29.2818 22.5506 29.2822 22.5458C29.2827 22.5409 29.2818 22.536 29.2797 22.5318C29.046 22.1912 28.8749 21.7932 28.7781 21.365C28.7363 21.1978 28.7021 21.028 28.6756 20.8563C28.7701 21.1113 28.8859 21.3537 29.0211 21.5798C29.2828 22.0068 29.6362 22.3373 30.0422 22.5345C30.0544 22.5389 30.0675 22.5382 30.0795 22.5325C30.0914 22.5269 30.1014 22.5166 30.108 22.5032C30.1146 22.4899 30.1174 22.4743 30.116 22.4588C30.1146 22.4433 30.109 22.4288 30.1001 22.4176V22.4176Z" fill="#263238"/>
<path d="M33.2124 38.6675C34.0373 40.1118 35.9523 48.2882 36.5097 48.6962C37.067 49.1042 39.3053 50.1976 39.6976 50.8123C40.09 51.427 40.4802 52.3818 40.09 52.6538C39.6999 52.9258 33.1567 52.7218 32.0375 52.6538C30.9184 52.5858 26.0628 48.6281 25.4966 47.6054C24.9303 46.5827 17.948 38.5995 18.5633 36.5541C19.1786 34.5086 29.8572 32.7923 33.2124 38.6675Z" fill="#025E73"/>
<path d="M38.6965 51.549C38.5447 51.3947 38.3768 51.2658 38.1972 51.1655C38.0097 51.064 37.8159 50.9812 37.6175 50.918C37.5908 50.918 37.5819 50.9533 37.6175 50.9642C37.9749 51.133 38.2965 51.398 38.5583 51.7394C38.8235 52.0368 39.0491 52.3828 39.2271 52.7648C39.2449 52.8029 39.294 52.7648 39.2873 52.7349C39.2002 52.2723 38.993 51.8563 38.6965 51.549V51.549Z" fill="#263238"/>
<path d="M39.6752 51.1354C39.5229 50.9811 39.3551 50.8513 39.1758 50.7491C38.9876 50.6501 38.7939 50.5673 38.5962 50.5016C38.5935 50.5 38.5907 50.4991 38.5877 50.499C38.5848 50.4989 38.5819 50.4996 38.5792 50.5011C38.5765 50.5025 38.5741 50.5046 38.5722 50.5073C38.5702 50.51 38.5688 50.5132 38.568 50.5166C38.5671 50.52 38.5669 50.5236 38.5674 50.5272C38.5678 50.5307 38.5689 50.5341 38.5705 50.5371C38.5721 50.5401 38.5743 50.5426 38.5768 50.5444C38.5793 50.5463 38.5821 50.5474 38.585 50.5478C38.9414 50.7187 39.2621 50.9845 39.5236 51.3258C39.7887 51.6222 40.0143 51.9673 40.1924 52.3485C40.2102 52.3893 40.2593 52.3485 40.2526 52.3213C40.1691 51.8608 39.9667 51.4451 39.6752 51.1354V51.1354Z" fill="#263238"/>
<path d="M22.3732 43.1445C21.2274 41.7301 19.9209 40.5225 18.7416 39.1625C18.0458 38.4132 17.4288 37.5617 16.9046 36.6274C16.8912 36.6002 16.8533 36.6274 16.8689 36.6573C17.2882 37.4839 17.7553 38.2729 18.2668 39.0183C18.8005 39.771 19.3707 40.4841 19.9745 41.1535C21.1404 42.4754 22.3955 43.713 23.4322 45.1954C24.0276 46.0048 24.5328 46.9066 24.9348 47.8773C24.9459 47.9072 24.9861 47.8773 24.9749 47.8556C24.422 46.0413 23.4835 44.5127 22.3732 43.1445Z" fill="#263238"/>
<path d="M35.6648 45.7796C35.4641 44.9854 35.2545 44.1948 35.0361 43.4078C34.6147 41.8764 34.1109 40.3831 33.7141 38.8436C33.4755 37.9758 33.3177 37.078 33.2437 36.1671C33.2437 36.1318 33.1946 36.1318 33.1969 36.1671C33.2533 37.7512 33.4973 39.3169 33.9214 40.8156C34.342 42.3969 34.8042 43.9609 35.3081 45.5076C35.6001 46.4025 35.9189 47.2865 36.1998 48.1841C36.2109 48.2168 36.2511 48.2032 36.2422 48.1705C36.0415 47.3708 35.8654 46.5739 35.6648 45.7796Z" fill="#263238"/>
<path d="M33.7005 35.7269C33.7228 35.1829 33.7651 34.6389 33.8298 34.1112C33.83 34.1043 33.8282 34.0974 33.8248 34.0919C33.8214 34.0864 33.8165 34.0825 33.8109 34.0809C33.8054 34.0793 33.7996 34.0801 33.7945 34.0831C33.7894 34.0862 33.7853 34.0913 33.783 34.0976C33.519 35.141 33.4761 36.2489 33.6581 37.3181C33.6599 37.3261 33.6638 37.3332 33.6693 37.3383C33.6747 37.3433 33.6814 37.3461 33.6882 37.3461C33.695 37.3461 33.7017 37.3433 33.7071 37.3383C33.7126 37.3332 33.7165 37.3261 33.7183 37.3181C33.7005 36.7795 33.6871 36.2573 33.7005 35.7269Z" fill="#263238"/>
<path d="M27.8907 49.8798C27.0971 49.3738 26.5353 48.5578 25.9557 47.75C25.6748 47.3556 25.4028 46.9503 25.1085 46.5695C24.7384 46.0853 24.355 45.6257 24.0161 45.1089C23.9983 45.0817 23.9626 45.1089 23.9804 45.1388C24.6047 46.0908 25.0795 47.1733 25.7639 48.0818C26.3456 48.8846 27.07 49.5145 27.8818 49.9233C27.8907 49.9369 27.9019 49.8934 27.8907 49.8798Z" fill="#263238"/>
<path d="M16.6549 25.682C17.6603 28.6577 13.9796 36.8667 12.6844 38.3001C11.3891 39.7335 7.31827 43.2913 7.03737 43.9659C6.75647 44.6404 7.16668 49.0387 7.50331 49.5174C7.83994 49.9961 9.16196 50.3524 9.52312 50.774C9.83746 51.1358 10.3725 51.9708 9.95338 52.4822C9.53426 52.9935 4.18824 52.7542 3.6844 52.4822C3.18057 52.2102 0.159777 43.3484 0.159777 41.711C0.159777 40.0736 -1.04854 25.5406 3.18057 23.2912C7.40968 21.0417 15.2013 21.3844 16.6549 25.682Z" fill="#025E73"/>
<path d="M15.1545 33.3085C14.886 33.9917 14.5883 34.6572 14.2627 35.3023C14.1045 35.6124 13.9417 35.9197 13.7723 36.2244C13.6029 36.529 13.3933 36.8282 13.1971 37.1274C12.7746 37.7168 12.3211 38.2719 11.8394 38.7893C11.5942 39.0749 11.3378 39.3551 11.097 39.6488C10.8563 39.9426 10.5865 40.3044 10.3079 40.5927C10.2856 40.6144 10.3079 40.6498 10.3391 40.628C10.6333 40.3261 10.97 40.0677 11.2821 39.7903C11.5942 39.5128 11.8595 39.2626 12.1448 38.9933C12.6684 38.5306 13.1451 37.9937 13.565 37.394C14.3497 36.189 14.7398 34.7311 15.1835 33.314C15.1991 33.3004 15.1656 33.284 15.1545 33.3085Z" fill="#263238"/>
<path d="M19.0804 25.1079C17.3994 27.6701 16.2156 30.6757 15.3952 33.7874C15.2793 34.2226 15.1723 34.6578 15.0631 35.0984C14.9538 35.5391 14.8847 36.0395 14.7532 36.4965C14.7532 36.5291 14.7866 36.5428 14.7955 36.5101C14.907 36.1021 15.0675 35.7213 15.2035 35.3296C15.3395 34.938 15.4554 34.5789 15.5825 34.2036L16.3383 31.9432C16.8376 30.4336 17.3593 28.9322 17.9679 27.4824C18.3133 26.6749 18.6974 25.8929 19.1183 25.1405C19.1339 25.1133 19.0982 25.0807 19.0804 25.1079Z" fill="#263238"/>
<path d="M8.54004 51.633C8.38864 51.4781 8.22063 51.349 8.04066 51.2495C7.85351 51.1472 7.65961 51.0644 7.46103 51.002C7.43427 51.002 7.42536 51.0373 7.46103 51.0482C7.81775 51.217 8.1386 51.482 8.39959 51.8234C8.66527 52.1202 8.89097 52.4663 9.0684 52.8488C9.084 52.8869 9.13528 52.8488 9.12859 52.8189C9.04271 52.3563 8.8362 51.9402 8.54004 51.633V51.633Z" fill="#263238"/>
<path d="M9.51856 51.2197C9.36689 51.0645 9.19896 50.9346 9.01918 50.8335C8.83099 50.7344 8.63729 50.6517 8.43954 50.5859C8.41279 50.5859 8.40387 50.6213 8.43954 50.6322C8.79693 50.8023 9.11844 51.0681 9.38034 51.4101C9.64559 51.7064 9.87125 52.0515 10.0491 52.4328C10.067 52.4736 10.116 52.4328 10.1093 52.4056C10.0223 51.943 9.81505 51.527 9.51856 51.2197V51.2197Z" fill="#263238"/>
</svg>
