<svg width="80" height="80" viewBox="0 0 80 80" fill="none" xmlns="http://www.w3.org/2000/svg">
<path d="M10 13.334V3.33398H16.6667V13.334H26.6667V20.0007H16.6667V30.0007H10V20.0007H0V13.334H10ZM20 33.334V23.334H30V13.334H53.3333L59.4333 20.0007H70C73.6667 20.0007 76.6667 23.0007 76.6667 26.6673V66.6673C76.6667 70.334 73.6667 73.334 70 73.334H16.6667C13 73.334 10 70.334 10 66.6673V33.334H20ZM43.3333 63.334C52.5333 63.334 60 55.8673 60 46.6673C60 37.4673 52.5333 30.0007 43.3333 30.0007C34.1333 30.0007 26.6667 37.4673 26.6667 46.6673C26.6667 55.8673 34.1333 63.334 43.3333 63.334ZM32.6667 46.6673C32.6667 52.5673 37.4333 57.334 43.3333 57.334C49.2333 57.334 54 52.5673 54 46.6673C54 40.7673 49.2333 36.0007 43.3333 36.0007C37.4333 36.0007 32.6667 40.7673 32.6667 46.6673Z" fill="#025E73"/>
</svg>
